<svg xmlns="http://www.w3.org/2000/svg" version="1.1" xmlns:xlink="http://www.w3.org/1999/xlink" viewBox="0 0 200 200"><rect width="200" height="200" fill="url('#gradient')"></rect><defs><linearGradient id="gradient" gradientTransform="rotate(89 0.5 0.5)"><stop offset="0%" stop-color="#ffffff"></stop><stop offset="100%" stop-color="#b20e0e"></stop></linearGradient></defs><g><g fill="#000000" transform="matrix(1.3908059701492537,0,0,1.3908059701492537,7.17932820533639,106.99505042779268)" stroke="#999696" stroke-width="0.2"><path d="M4.73-14.22L4.73 0L1.31 0L1.31-14.22L4.73-14.22ZM6.98-10.57L10.07-10.57L10.18-9.33Q11.30-10.76 13.19-10.76L13.19-10.76Q15.20-10.76 15.90-9.17L15.90-9.17Q16.97-10.76 19.00-10.76L19.00-10.76Q22.22-10.76 22.30-6.88L22.30-6.88L22.30 0L19.00 0L19.00-6.67Q19.00-7.48 18.73-7.85Q18.46-8.22 17.73-8.22L17.73-8.22Q16.76-8.22 16.28-7.35L16.28-7.35L16.29-7.22L16.29 0L12.99 0L12.99-6.65Q12.99-7.48 12.72-7.85Q12.46-8.22 11.72-8.22L11.72-8.22Q10.77-8.22 10.27-7.35L10.27-7.35L10.27 0L6.98 0L6.98-10.57ZM33.43 0L30.14 0Q29.96-0.32 29.82-0.95L29.82-0.95Q28.92 0.20 27.29 0.20L27.29 0.20Q25.79 0.20 24.75-0.71Q23.70-1.61 23.70-2.98L23.70-2.98Q23.70-4.70 24.97-5.58Q26.24-6.46 28.66-6.46L28.66-6.46L29.68-6.46L29.68-7.01Q29.68-8.47 28.42-8.47L28.42-8.47Q27.25-8.47 27.25-7.31L27.25-7.31L23.96-7.31Q23.96-8.85 25.26-9.80Q26.56-10.76 28.58-10.76Q30.61-10.76 31.78-9.78Q32.95-8.79 32.98-7.07L32.98-7.07L32.98-2.39Q33.00-0.94 33.43-0.17L33.43-0.17L33.43 0ZM28.08-2.15L28.08-2.15Q28.69-2.15 29.10-2.41Q29.50-2.68 29.68-3.01L29.68-3.01L29.68-4.70L28.72-4.70Q27.00-4.70 27.00-3.15L27.00-3.15Q27.00-2.71 27.30-2.43Q27.61-2.15 28.08-2.15ZM34.41-5.24L34.41-5.36Q34.41-6.96 34.94-8.19Q35.47-9.42 36.46-10.09Q37.44-10.76 38.75-10.76L38.75-10.76Q40.40-10.76 41.33-9.65L41.33-9.65L41.45-10.57L44.43-10.57L44.43-0.40Q44.43 1.00 43.78 2.03Q43.13 3.06 41.90 3.61Q40.67 4.16 39.05 4.16L39.05 4.16Q37.89 4.16 36.80 3.72Q35.71 3.28 35.14 2.58L35.14 2.58L36.51 0.64Q37.43 1.73 38.94 1.73L38.94 1.73Q41.12 1.73 41.12-0.52L41.12-0.52L41.12-0.85Q40.18 0.20 38.73 0.20L38.73 0.20Q36.80 0.20 35.61-1.28Q34.41-2.76 34.41-5.24L34.41-5.24ZM37.71-5.16L37.71-5.16Q37.71-3.86 38.20-3.10Q38.69-2.34 39.57-2.34L39.57-2.34Q40.63-2.34 41.12-3.06L41.12-3.06L41.12-7.50Q40.64-8.22 39.59-8.22L39.59-8.22Q38.71-8.22 38.21-7.44Q37.71-6.65 37.71-5.16ZM51.42 0.20L51.42 0.20Q48.98 0.20 47.48-1.25Q45.98-2.71 45.98-5.03L45.98-5.03L45.98-5.30Q45.98-6.92 46.58-8.16Q47.18-9.40 48.33-10.08Q49.48-10.76 51.06-10.76L51.06-10.76Q53.29-10.76 54.58-9.38Q55.87-8.00 55.87-5.53L55.87-5.53L55.87-4.25L49.33-4.25Q49.50-3.36 50.10-2.85Q50.69-2.34 51.64-2.34L51.64-2.34Q53.20-2.34 54.08-3.44L54.08-3.44L55.59-1.66Q54.97-0.81 53.84-0.31Q52.71 0.20 51.42 0.20ZM51.04-8.22L51.04-8.22Q49.60-8.22 49.33-6.31L49.33-6.31L52.65-6.31L52.65-6.56Q52.67-7.35 52.25-7.79Q51.83-8.22 51.04-8.22ZM71.14-8.57L71.14-6.03L65.75-6.03L65.75-2.64L72.12-2.64L72.12 0L62.32 0L62.32-14.22L72.14-14.22L72.14-11.57L65.75-11.57L65.75-8.57L71.14-8.57ZM76.16-10.57L77.65-7.66L79.18-10.57L82.60-10.57L79.81-5.42L82.73 0L79.30 0L77.64-3.13L76.01 0L72.55 0L75.48-5.42L72.71-10.57L76.16-10.57ZM93.47-5.36L93.47-5.21Q93.47-2.74 92.36-1.27Q91.25 0.20 89.37 0.20L89.37 0.20Q87.91 0.20 86.97-0.87L86.97-0.87L86.97 4.06L83.68 4.06L83.68-10.57L86.76-10.57L86.86-9.59Q87.80-10.76 89.35-10.76L89.35-10.76Q91.30-10.76 92.38-9.32Q93.47-7.88 93.47-5.36L93.47-5.36ZM90.18-5.06L90.18-5.41Q90.18-8.22 88.54-8.22L88.54-8.22Q87.36-8.22 86.97-7.38L86.97-7.38L86.97-3.22Q87.40-2.34 88.55-2.34L88.55-2.34Q90.13-2.34 90.18-5.06L90.18-5.06ZM101.37-10.64L101.31-7.59L100.22-7.67Q98.67-7.67 98.23-6.69L98.23-6.69L98.23 0L94.94 0L94.94-10.57L98.03-10.57L98.13-9.21Q98.96-10.76 100.45-10.76L100.45-10.76Q100.98-10.76 101.37-10.64L101.37-10.64ZM107.42 0.20L107.42 0.20Q104.99 0.20 103.49-1.25Q101.98-2.71 101.98-5.03L101.98-5.03L101.98-5.30Q101.98-6.92 102.58-8.16Q103.18-9.40 104.34-10.08Q105.49-10.76 107.07-10.76L107.07-10.76Q109.30-10.76 110.59-9.38Q111.88-8.00 111.88-5.53L111.88-5.53L111.88-4.25L105.33-4.25Q105.51-3.36 106.10-2.85Q106.70-2.34 107.65-2.34L107.65-2.34Q109.21-2.34 110.09-3.44L110.09-3.44L111.59-1.66Q110.98-0.81 109.85-0.31Q108.72 0.20 107.42 0.20ZM107.05-8.22L107.05-8.22Q105.61-8.22 105.33-6.31L105.33-6.31L108.65-6.31L108.65-6.56Q108.67-7.35 108.25-7.79Q107.83-8.22 107.05-8.22ZM118.73-2.97L118.73-2.97Q118.73-3.39 118.29-3.64Q117.85-3.90 116.62-4.17Q115.39-4.44 114.59-4.89Q113.79-5.33 113.37-5.97Q112.95-6.60 112.95-7.42L112.95-7.42Q112.95-8.88 114.15-9.82Q115.35-10.76 117.29-10.76L117.29-10.76Q119.38-10.76 120.65-9.81Q121.92-8.87 121.92-7.32L121.92-7.32L118.62-7.32Q118.62-8.59 117.29-8.59L117.29-8.59Q116.77-8.59 116.42-8.31Q116.06-8.02 116.06-7.59L116.06-7.59Q116.06-7.15 116.49-6.88Q116.92-6.60 117.87-6.43Q118.81-6.25 119.52-6.01L119.52-6.01Q121.90-5.19 121.90-3.07L121.90-3.07Q121.90-1.62 120.62-0.71Q119.34 0.20 117.29 0.20L117.29 0.20Q115.94 0.20 114.87-0.29Q113.81-0.78 113.21-1.62Q112.62-2.46 112.62-3.39L112.62-3.39L115.69-3.39Q115.71-2.66 116.18-2.32Q116.65-1.98 117.38-1.98L117.38-1.98Q118.06-1.98 118.39-2.26Q118.73-2.53 118.73-2.97ZM128.97-2.97L128.97-2.97Q128.97-3.39 128.54-3.64Q128.10-3.90 126.87-4.17Q125.63-4.44 124.83-4.89Q124.03-5.33 123.61-5.97Q123.19-6.60 123.19-7.42L123.19-7.42Q123.19-8.88 124.39-9.82Q125.60-10.76 127.54-10.76L127.54-10.76Q129.63-10.76 130.90-9.81Q132.17-8.87 132.17-7.32L132.17-7.32L128.87-7.32Q128.87-8.59 127.53-8.59L127.53-8.59Q127.01-8.59 126.66-8.31Q126.31-8.02 126.31-7.59L126.31-7.59Q126.31-7.15 126.74-6.88Q127.17-6.60 128.11-6.43Q129.05-6.25 129.77-6.01L129.77-6.01Q132.15-5.19 132.15-3.07L132.15-3.07Q132.15-1.62 130.86-0.71Q129.58 0.20 127.54 0.20L127.54 0.20Q126.18 0.20 125.12-0.29Q124.05-0.78 123.46-1.62Q122.86-2.46 122.86-3.39L122.86-3.39L125.94-3.39Q125.96-2.66 126.43-2.32Q126.89-1.98 127.63-1.98L127.63-1.98Q128.30-1.98 128.64-2.26Q128.97-2.53 128.97-2.97Z"></path></g></g></svg>